<svg width="105" height="52" viewBox="0 0 105 52" fill="none" xmlns="http://www.w3.org/2000/svg">
<rect width="105" height="52" fill="#004A85"/>
<path d="M48.9586 12.0928C64.7767 0.63397 105 12.0928 105 12.0928V38H48.9586V25.0464C49.2838 15.5258 33.1404 23.5517 48.9586 12.0928Z" fill="white"/>
<path d="M61.7598 16.7812H64.543L62.8828 26.5371C62.7526 27.4941 62.4661 28.3275 62.0234 29.0371C61.5872 29.7402 61.0046 30.2806 60.2754 30.6582C59.5462 31.0358 58.6868 31.2181 57.6973 31.2051C56.7598 31.1855 55.9818 30.9805 55.3633 30.5898C54.7448 30.1927 54.3021 29.6491 54.0352 28.959C53.7747 28.2624 53.6966 27.4583 53.8008 26.5469L55.4609 16.7812H58.2344L56.6035 26.5566C56.5579 26.9473 56.5514 27.3151 56.584 27.6602C56.6165 27.9987 56.7337 28.2754 56.9355 28.4902C57.1374 28.6986 57.4694 28.8125 57.9316 28.832C58.4199 28.8516 58.8105 28.7637 59.1035 28.5684C59.403 28.373 59.6276 28.0996 59.7773 27.748C59.9336 27.39 60.0475 26.9928 60.1191 26.5566L61.7598 16.7812ZM68.8977 22.8359L67.4816 31H64.7863L66.6223 20.4336H69.1418L68.8977 22.8359ZM68.0676 25.3555L67.4523 25.3945C67.4979 24.8346 67.6021 24.252 67.7648 23.6465C67.9276 23.0345 68.162 22.4648 68.468 21.9375C68.7805 21.4102 69.1743 20.9902 69.6496 20.6777C70.1249 20.3587 70.7076 20.209 71.3977 20.2285C71.9445 20.248 72.3742 20.3848 72.6867 20.6387C73.0057 20.8926 73.2368 21.2246 73.3801 21.6348C73.5298 22.0384 73.6145 22.4714 73.634 22.9336C73.6535 23.3893 73.6405 23.8385 73.5949 24.2812L72.4719 31H69.8059L70.9191 24.252C70.9452 23.985 70.9517 23.7214 70.9387 23.4609C70.9322 23.194 70.8638 22.9694 70.7336 22.7871C70.6099 22.6048 70.3788 22.5137 70.0402 22.5137C69.6887 22.4941 69.3957 22.582 69.1613 22.7773C68.927 22.9727 68.7349 23.2233 68.5852 23.5293C68.4419 23.8288 68.328 24.1413 68.2434 24.4668C68.1652 24.7923 68.1066 25.0885 68.0676 25.3555ZM79.8441 20.4336L78.0082 31H75.3324L77.1684 20.4336H79.8441ZM77.5199 17.748C77.5134 17.3249 77.6469 16.9668 77.9203 16.6738C78.1938 16.3809 78.5486 16.2311 78.9848 16.2246C79.3949 16.2181 79.7367 16.3483 80.0102 16.6152C80.2836 16.8822 80.4171 17.224 80.4105 17.6406C80.4236 18.0638 80.2934 18.4219 80.0199 18.7148C79.753 19.0078 79.4014 19.1576 78.9652 19.1641C78.5551 19.1771 78.2133 19.0501 77.9398 18.7832C77.6664 18.5098 77.5264 18.1647 77.5199 17.748ZM87.2164 20.4336L86.8453 22.4941H81.6012L81.9723 20.4336H87.2164ZM83.6324 17.8262H86.2887L84.5895 27.7969C84.5699 27.9727 84.5602 28.1387 84.5602 28.2949C84.5602 28.4512 84.596 28.5814 84.6676 28.6855C84.7457 28.7897 84.8889 28.8451 85.0973 28.8516C85.2079 28.8516 85.3154 28.8451 85.4195 28.832C85.5302 28.819 85.6409 28.8027 85.7516 28.7832L85.5367 30.9414C85.3089 31.026 85.0777 31.0879 84.8434 31.127C84.609 31.166 84.3681 31.1823 84.1207 31.1758C83.5152 31.1693 83.0432 31.0195 82.7047 30.7266C82.3661 30.4271 82.135 30.0462 82.0113 29.584C81.8876 29.1152 81.8518 28.6107 81.9039 28.0703L83.6324 17.8262ZM91.9324 31.1953C91.2293 31.1823 90.6271 31.0456 90.1258 30.7852C89.6245 30.5247 89.2241 30.1699 88.9246 29.7207C88.6251 29.265 88.4201 28.7507 88.3094 28.1777C88.1987 27.5983 88.1759 26.9798 88.241 26.3223L88.3387 25.4531C88.4298 24.776 88.5893 24.1217 88.8172 23.4902C89.0451 22.8587 89.351 22.2956 89.7352 21.8008C90.1258 21.2995 90.6043 20.9089 91.1707 20.6289C91.7371 20.349 92.4012 20.2155 93.1629 20.2285C93.8921 20.248 94.4813 20.4108 94.9305 20.7168C95.3862 21.0163 95.728 21.4134 95.9559 21.9082C96.1902 22.403 96.3335 22.9531 96.3855 23.5586C96.4376 24.1576 96.4246 24.763 96.3465 25.375L96.1707 26.625H89.2859L89.6277 24.7012L93.7977 24.7109L93.8465 24.4375C93.8921 24.1641 93.9083 23.8809 93.8953 23.5879C93.8823 23.2884 93.8042 23.0378 93.6609 22.8359C93.5177 22.6276 93.2703 22.5137 92.9188 22.4941C92.5346 22.4746 92.2221 22.5625 91.9813 22.7578C91.7469 22.9466 91.5646 23.1973 91.4344 23.5098C91.3042 23.8223 91.2098 24.151 91.1512 24.4961C91.0991 24.8346 91.0568 25.1536 91.0242 25.4531L90.9168 26.332C90.8842 26.625 90.8712 26.9212 90.8777 27.2207C90.8842 27.5137 90.9233 27.7871 90.9949 28.041C91.073 28.2949 91.2098 28.5033 91.4051 28.666C91.6069 28.8288 91.8934 28.9134 92.2645 28.9199C92.7202 28.9329 93.1401 28.8483 93.5242 28.666C93.9148 28.4837 94.2794 28.2493 94.618 27.9629L95.5262 29.6328C95.2527 29.9974 94.9207 30.3001 94.5301 30.541C94.1395 30.7754 93.7163 30.9447 93.2605 31.0488C92.8113 31.153 92.3686 31.2018 91.9324 31.1953Z" fill="#FF8924"/>
<path d="M39.0977 36.2345C38.2539 36.2189 37.5312 36.0548 36.9297 35.7423C36.3281 35.4298 35.8477 35.004 35.4883 34.4649C35.1289 33.9181 34.8828 33.3009 34.75 32.6134C34.6172 31.9181 34.5898 31.1759 34.668 30.3868L34.7852 29.3439C34.8945 28.5313 35.0859 27.7462 35.3594 26.9884C35.6328 26.2306 36 25.5548 36.4609 24.961C36.9297 24.3595 37.5039 23.8907 38.1836 23.5548C38.8633 23.2189 39.6602 23.0587 40.5742 23.0743C41.4492 23.0978 42.1562 23.2931 42.6953 23.6603C43.2422 24.0196 43.6523 24.4962 43.9258 25.0899C44.207 25.6837 44.3789 26.3439 44.4414 27.0704C44.5039 27.7892 44.4883 28.5157 44.3945 29.2501L44.1836 30.7501H35.9219L36.332 28.4415L41.3359 28.4532L41.3945 28.1251C41.4492 27.797 41.4688 27.4571 41.4531 27.1056C41.4375 26.7462 41.3438 26.4454 41.1719 26.2032C41 25.9532 40.7031 25.8165 40.2812 25.7931C39.8203 25.7696 39.4453 25.8751 39.1562 26.1095C38.875 26.336 38.6562 26.6368 38.5 27.0118C38.3438 27.3868 38.2305 27.7813 38.1602 28.1954C38.0977 28.6017 38.0469 28.9845 38.0078 29.3439L37.8789 30.3985C37.8398 30.7501 37.8242 31.1056 37.832 31.4649C37.8398 31.8165 37.8867 32.1446 37.9727 32.4493C38.0664 32.754 38.2305 33.004 38.4648 33.1993C38.707 33.3946 39.0508 33.4962 39.4961 33.504C40.043 33.5196 40.5469 33.4181 41.0078 33.1993C41.4766 32.9806 41.9141 32.6993 42.3203 32.3556L43.4102 34.3595C43.082 34.797 42.6836 35.1603 42.2148 35.4493C41.7461 35.7306 41.2383 35.9337 40.6914 36.0587C40.1523 36.1837 39.6211 36.2423 39.0977 36.2345Z" fill="white"/>
<path d="M27.5837 9L3.08368 9.5C2.28368 15.5 7.41701 17.6667 10.0837 18H23.5837V16L29.0837 19.5L23.5837 22.5V20.5H12.0837L7.08368 38.5H15.5837L18.0837 29.5L23.5837 38.5H33.0837L27.5837 29C28.7837 28.6 30.0837 27.8333 30.5837 27.5C34.5837 24.8333 35.1667 21.1667 35.5 20C35.8333 18.8333 35.7837 15.3 34.5837 12.5C33.3837 9.7 29.417 9 27.5837 9Z" fill="white"/>
</svg>
