<svg width="27" height="25" viewBox="0 0 27 25" fill="none" xmlns="http://www.w3.org/2000/svg">
<path d="M1.34383 12.572C-0.589259 9.72284 -0.48664 5.92174 1.97623 3.15685C3.76248 1.15118 6.03096 0.240116 8.71075 0.507928C10.381 0.674789 11.8361 1.41232 13.1242 2.48023C13.1985 2.54197 13.2761 2.59953 13.352 2.6596C13.3503 5.11163 13.3487 7.56365 13.3478 10.0157C13.3478 10.1258 13.3336 10.2384 13.4029 10.3369C13.3812 10.412 13.3603 10.4871 13.3386 10.5621C12.7555 11.7619 12.1723 12.9616 11.5699 14.2022C10.8457 13.0667 10.1608 11.9763 9.45745 10.8967C9.06533 10.2952 8.43042 10.3085 8.04748 10.9151C7.77382 11.3481 7.50601 11.7861 7.25989 12.2358C7.12473 12.4827 6.96288 12.5762 6.67254 12.5745C4.8963 12.5603 3.12007 12.5703 1.34383 12.572Z" fill="#EF455F"/>
<path d="M13.4021 10.3369C13.3328 10.2384 13.347 10.125 13.347 10.0157C13.3479 7.56364 13.3495 5.11162 13.3512 2.65959C14.6619 1.50992 16.1603 0.71733 17.8982 0.511257C20.1558 0.243444 22.1907 0.853322 23.9118 2.3534C25.8049 4.00283 26.7827 6.09109 26.6809 8.62405C26.6233 10.0616 26.177 11.3889 25.3485 12.5778C23.2953 12.5745 21.2412 12.567 19.188 12.572C18.9352 12.5728 18.7959 12.4994 18.6732 12.2666C17.8723 10.7499 17.0488 9.24561 16.2404 7.73301C16.0527 7.38177 15.8366 7.12146 15.3827 7.14149C14.9397 7.16067 14.7695 7.45685 14.611 7.79141C14.208 8.6399 13.8051 9.48839 13.4021 10.3369Z" fill="#C3214B"/>
<path d="M24.1112 14.158C20.7414 17.5136 17.3708 20.8692 14.0011 24.2247C13.82 24.4049 13.6348 24.5685 13.3503 24.5067C13.3486 24.0762 13.347 23.6466 13.3461 23.2161C13.342 20.2192 13.3378 17.2224 13.3336 14.2264C13.3403 14.1814 13.3461 14.1355 13.3528 14.0904C14.0536 12.6404 14.7553 11.1904 15.477 9.69862C15.5846 9.8805 15.6738 10.019 15.7523 10.1633C16.3488 11.2721 16.9545 12.3767 17.5327 13.4956C17.7554 13.9261 18.0458 14.1171 18.548 14.1096C20.2559 14.0837 21.9637 14.0979 23.6715 14.1029C23.8183 14.1038 23.9777 14.0454 24.1112 14.158Z" fill="#C3214B"/>
<path d="M13.3344 14.2264C13.3386 17.2232 13.3428 20.2201 13.347 23.2169C13.3478 23.6474 13.3495 24.0771 13.3511 24.5076C13.0866 24.5601 12.9006 24.4216 12.7287 24.2506C9.40653 20.9443 6.08515 17.6387 2.76378 14.3324C2.69537 14.2648 2.61778 14.2014 2.60693 14.0954C4.20129 14.0971 5.79648 14.0904 7.39084 14.1071C7.80382 14.1113 8.06663 13.9453 8.26686 13.6024C8.42872 13.3245 8.55804 13.0208 8.80332 12.7789C9.51582 13.8985 10.2175 14.994 10.9108 16.0961C11.1077 16.4081 11.3321 16.6326 11.7401 16.6042C12.1322 16.5775 12.3141 16.3305 12.4643 16.0135C12.7463 15.4136 13.0433 14.8221 13.3344 14.2264Z" fill="#EF4660"/>
<path d="M24.1112 14.158C23.9768 14.0454 23.8183 14.1029 23.6723 14.1029C21.9645 14.0979 20.2558 14.0838 18.5488 14.1096C18.0466 14.1171 17.7563 13.9261 17.5335 13.4956C16.9545 12.3768 16.3496 11.2721 15.7531 10.1634C15.6755 10.019 15.5862 9.88052 15.4778 9.69864C14.7561 11.1904 14.0553 12.6404 13.3536 14.0904C13.3486 12.9141 13.3428 11.7377 13.3378 10.5613C13.3595 10.4862 13.3803 10.4111 13.402 10.3361C13.805 9.48756 14.2088 8.63907 14.6109 7.78975C14.7694 7.45603 14.9396 7.15985 15.3827 7.13983C15.8365 7.1198 16.0526 7.38094 16.2403 7.73135C17.0488 9.24395 17.8722 10.749 18.6732 12.265C18.7958 12.4977 18.9351 12.5712 19.1879 12.5703C21.2411 12.5645 23.2952 12.572 25.3484 12.5762C25.0164 13.1669 24.5583 13.6583 24.1112 14.158Z" fill="#B3D4EF"/>
<path d="M13.338 10.5621C13.343 11.7385 13.3488 12.9149 13.3538 14.0913C13.3471 14.1363 13.3413 14.1822 13.3346 14.2272C13.0434 14.8221 12.7464 15.4145 12.4636 16.0127C12.3134 16.3305 12.1316 16.5766 11.7394 16.6033C11.3315 16.6317 11.107 16.4073 10.9101 16.0953C10.2168 14.994 9.51517 13.8977 8.80267 12.7781C8.55738 13.02 8.4289 13.3245 8.26621 13.6015C8.06598 13.9444 7.80317 14.1104 7.39019 14.1063C5.79583 14.0896 4.20064 14.0963 2.60628 14.0946C2.05313 13.6966 1.71941 13.1168 1.34314 12.572C3.11938 12.5695 4.89561 12.5603 6.67185 12.5728C6.96219 12.5753 7.12405 12.481 7.2592 12.2341C7.50532 11.7852 7.77314 11.3472 8.04679 10.9134C8.42974 10.3068 9.06464 10.2935 9.45677 10.895C10.1601 11.9746 10.8451 13.0651 11.5692 14.2005C12.1716 12.9616 12.7548 11.7619 13.338 10.5621Z" fill="#E3F1FB"/>
</svg>
